<svg xmlns="http://www.w3.org/2000/svg" xmlns:xlink="http://www.w3.org/1999/xlink" width="500" zoomAndPan="magnify" viewBox="0 0 375 374.999991" height="500" preserveAspectRatio="xMidYMid meet" version="1.0"><defs><clipPath id="8bec578235"><path d="M 131.25 131.25 L 243.75 131.25 L 243.75 243.75 L 131.25 243.75 Z M 131.25 131.25 " clip-rule="nonzero"/></clipPath><clipPath id="1b9ffa8de5"><path d="M 187.5 131.25 C 156.433594 131.25 131.25 156.433594 131.25 187.5 C 131.25 218.566406 156.433594 243.75 187.5 243.75 C 218.566406 243.75 243.75 218.566406 243.75 187.5 C 243.75 156.433594 218.566406 131.25 187.5 131.25 Z M 187.5 131.25 " clip-rule="nonzero"/></clipPath><clipPath id="4218dbf40d"><path d="M 0 0 L 374.429688 0 L 374.429688 374.429688 L 0 374.429688 Z M 0 0 " clip-rule="nonzero"/></clipPath><clipPath id="3abf083b6d"><path d="M 100.730469 0 L 273.699219 0 C 275.347656 0 276.996094 0.0390625 278.640625 0.121094 C 280.289062 0.203125 281.933594 0.324219 283.574219 0.484375 C 285.214844 0.648438 286.847656 0.847656 288.480469 1.089844 C 290.109375 1.332031 291.734375 1.613281 293.351562 1.933594 C 294.96875 2.257812 296.578125 2.617188 298.175781 3.019531 C 299.773438 3.417969 301.363281 3.859375 302.941406 4.335938 C 304.519531 4.816406 306.082031 5.332031 307.636719 5.886719 C 309.1875 6.445312 310.726562 7.035156 312.25 7.667969 C 313.769531 8.296875 315.277344 8.964844 316.769531 9.671875 C 318.257812 10.375 319.730469 11.117188 321.183594 11.894531 C 322.636719 12.671875 324.070312 13.484375 325.484375 14.332031 C 326.898438 15.179688 328.292969 16.058594 329.664062 16.976562 C 331.035156 17.890625 332.382812 18.839844 333.707031 19.824219 C 335.03125 20.804688 336.328125 21.820312 337.601562 22.863281 C 338.878906 23.910156 340.125 24.988281 341.347656 26.09375 C 342.570312 27.203125 343.761719 28.339844 344.929688 29.503906 C 346.09375 30.667969 347.230469 31.863281 348.335938 33.085938 C 349.445312 34.304688 350.519531 35.554688 351.566406 36.828125 C 352.613281 38.101562 353.625 39.402344 354.609375 40.726562 C 355.589844 42.050781 356.539062 43.398438 357.453125 44.769531 C 358.371094 46.140625 359.253906 47.53125 360.101562 48.945312 C 360.949219 50.359375 361.761719 51.792969 362.539062 53.246094 C 363.3125 54.699219 364.054688 56.171875 364.761719 57.664062 C 365.464844 59.152344 366.132812 60.660156 366.765625 62.183594 C 367.394531 63.707031 367.988281 65.242188 368.542969 66.796875 C 369.097656 68.347656 369.617188 69.914062 370.09375 71.492188 C 370.574219 73.066406 371.011719 74.65625 371.414062 76.253906 C 371.8125 77.855469 372.175781 79.464844 372.496094 81.078125 C 372.816406 82.695312 373.097656 84.320312 373.339844 85.953125 C 373.582031 87.582031 373.785156 89.21875 373.945312 90.859375 C 374.109375 92.5 374.230469 94.140625 374.308594 95.789062 C 374.390625 97.433594 374.429688 99.082031 374.429688 100.730469 L 374.429688 273.699219 C 374.429688 275.347656 374.390625 276.996094 374.308594 278.640625 C 374.230469 280.289062 374.109375 281.933594 373.945312 283.574219 C 373.785156 285.214844 373.582031 286.847656 373.339844 288.480469 C 373.097656 290.109375 372.816406 291.734375 372.496094 293.351562 C 372.175781 294.96875 371.8125 296.578125 371.414062 298.175781 C 371.011719 299.773438 370.574219 301.363281 370.09375 302.941406 C 369.617188 304.519531 369.097656 306.082031 368.542969 307.636719 C 367.988281 309.1875 367.394531 310.726562 366.765625 312.25 C 366.132812 313.769531 365.464844 315.277344 364.761719 316.769531 C 364.054688 318.257812 363.3125 319.730469 362.539062 321.183594 C 361.761719 322.636719 360.949219 324.070312 360.101562 325.484375 C 359.253906 326.898438 358.371094 328.292969 357.453125 329.664062 C 356.539062 331.035156 355.589844 332.382812 354.609375 333.707031 C 353.625 335.03125 352.613281 336.328125 351.566406 337.601562 C 350.519531 338.878906 349.445312 340.125 348.335938 341.347656 C 347.230469 342.570312 346.09375 343.761719 344.929688 344.929688 C 343.761719 346.09375 342.570312 347.230469 341.347656 348.335938 C 340.125 349.445312 338.878906 350.519531 337.601562 351.566406 C 336.328125 352.613281 335.03125 353.625 333.707031 354.609375 C 332.382812 355.589844 331.035156 356.539062 329.664062 357.453125 C 328.292969 358.371094 326.898438 359.253906 325.484375 360.101562 C 324.070312 360.949219 322.636719 361.761719 321.183594 362.539062 C 319.730469 363.3125 318.257812 364.054688 316.769531 364.761719 C 315.277344 365.464844 313.769531 366.132812 312.25 366.765625 C 310.726562 367.394531 309.1875 367.988281 307.636719 368.542969 C 306.082031 369.097656 304.519531 369.617188 302.941406 370.09375 C 301.363281 370.574219 299.773438 371.011719 298.175781 371.414062 C 296.578125 371.8125 294.96875 372.175781 293.351562 372.496094 C 291.734375 372.816406 290.109375 373.097656 288.480469 373.339844 C 286.847656 373.582031 285.214844 373.785156 283.574219 373.945312 C 281.933594 374.109375 280.289062 374.230469 278.640625 374.308594 C 276.996094 374.390625 275.347656 374.429688 273.699219 374.429688 L 100.730469 374.429688 C 99.082031 374.429688 97.433594 374.390625 95.789062 374.308594 C 94.140625 374.230469 92.5 374.109375 90.859375 373.945312 C 89.21875 373.785156 87.582031 373.582031 85.953125 373.339844 C 84.320312 373.097656 82.695312 372.816406 81.078125 372.496094 C 79.464844 372.175781 77.855469 371.8125 76.253906 371.414062 C 74.65625 371.011719 73.066406 370.574219 71.492188 370.09375 C 69.914062 369.617188 68.347656 369.097656 66.796875 368.542969 C 65.242188 367.988281 63.707031 367.394531 62.183594 366.765625 C 60.660156 366.132812 59.152344 365.464844 57.664062 364.761719 C 56.171875 364.054688 54.699219 363.3125 53.246094 362.539062 C 51.792969 361.761719 50.359375 360.949219 48.945312 360.101562 C 47.53125 359.253906 46.140625 358.371094 44.769531 357.453125 C 43.398438 356.539062 42.050781 355.589844 40.726562 354.609375 C 39.402344 353.625 38.101562 352.613281 36.828125 351.566406 C 35.554688 350.519531 34.304688 349.445312 33.085938 348.335938 C 31.863281 347.230469 30.667969 346.09375 29.503906 344.929688 C 28.339844 343.761719 27.203125 342.570312 26.09375 341.347656 C 24.988281 340.125 23.910156 338.878906 22.863281 337.601562 C 21.820312 336.328125 20.804688 335.03125 19.824219 333.707031 C 18.839844 332.382812 17.890625 331.035156 16.976562 329.664062 C 16.058594 328.292969 15.179688 326.898438 14.332031 325.484375 C 13.484375 324.070312 12.671875 322.636719 11.894531 321.183594 C 11.117188 319.730469 10.375 318.257812 9.671875 316.769531 C 8.964844 315.277344 8.296875 313.769531 7.667969 312.25 C 7.035156 310.726562 6.445312 309.1875 5.886719 307.636719 C 5.332031 306.082031 4.816406 304.519531 4.335938 302.941406 C 3.859375 301.363281 3.417969 299.773438 3.019531 298.175781 C 2.617188 296.578125 2.257812 294.96875 1.933594 293.351562 C 1.613281 291.734375 1.332031 290.109375 1.089844 288.480469 C 0.847656 286.847656 0.648438 285.214844 0.484375 283.574219 C 0.324219 281.933594 0.203125 280.289062 0.121094 278.640625 C 0.0390625 276.996094 0 275.347656 0 273.699219 L 0 100.730469 C 0 99.082031 0.0390625 97.433594 0.121094 95.789062 C 0.203125 94.140625 0.324219 92.5 0.484375 90.859375 C 0.648438 89.21875 0.847656 87.582031 1.089844 85.953125 C 1.332031 84.320312 1.613281 82.695312 1.933594 81.078125 C 2.257812 79.464844 2.617188 77.855469 3.019531 76.253906 C 3.417969 74.65625 3.859375 73.066406 4.335938 71.492188 C 4.816406 69.914062 5.332031 68.347656 5.886719 66.796875 C 6.445312 65.242188 7.035156 63.707031 7.667969 62.183594 C 8.296875 60.660156 8.964844 59.152344 9.671875 57.664062 C 10.375 56.171875 11.117188 54.699219 11.894531 53.246094 C 12.671875 51.792969 13.484375 50.359375 14.332031 48.945312 C 15.179688 47.53125 16.058594 46.140625 16.976562 44.769531 C 17.890625 43.398438 18.839844 42.050781 19.824219 40.726562 C 20.804688 39.402344 21.820312 38.101562 22.863281 36.828125 C 23.910156 35.554688 24.988281 34.304688 26.09375 33.085938 C 27.203125 31.863281 28.339844 30.667969 29.503906 29.503906 C 30.667969 28.339844 31.863281 27.203125 33.085938 26.09375 C 34.304688 24.988281 35.554688 23.910156 36.828125 22.863281 C 38.101562 21.820312 39.402344 20.804688 40.726562 19.824219 C 42.050781 18.839844 43.398438 17.890625 44.769531 16.976562 C 46.140625 16.058594 47.53125 15.179688 48.945312 14.332031 C 50.359375 13.484375 51.792969 12.671875 53.246094 11.894531 C 54.699219 11.117188 56.171875 10.375 57.664062 9.671875 C 59.152344 8.964844 60.660156 8.296875 62.183594 7.667969 C 63.707031 7.035156 65.242188 6.445312 66.796875 5.886719 C 68.347656 5.332031 69.914062 4.816406 71.492188 4.335938 C 73.066406 3.859375 74.65625 3.417969 76.253906 3.019531 C 77.855469 2.617188 79.464844 2.257812 81.078125 1.933594 C 82.695312 1.613281 84.320312 1.332031 85.953125 1.089844 C 87.582031 0.847656 89.21875 0.648438 90.859375 0.484375 C 92.5 0.324219 94.140625 0.203125 95.789062 0.121094 C 97.433594 0.0390625 99.082031 0 100.730469 0 Z M 100.730469 0 " clip-rule="nonzero"/></clipPath><linearGradient x1="21.351888" gradientTransform="matrix(0, -1.586574, 1.586574, 0, 0.0000045, 374.431481)" y1="-15.462284" x2="214.648925" gradientUnits="userSpaceOnUse" y2="251.461705" id="90c37c4f6c"><stop stop-opacity="1" stop-color="rgb(49.617004%, 66.291809%, 95.73822%)" offset="0"/><stop stop-opacity="1" stop-color="rgb(49.578857%, 66.012573%, 95.687866%)" offset="0.00390625"/><stop stop-opacity="1" stop-color="rgb(49.542236%, 65.734863%, 95.639038%)" offset="0.0078125"/><stop stop-opacity="1" stop-color="rgb(49.504089%, 65.455627%, 95.59021%)" offset="0.0117187"/><stop stop-opacity="1" stop-color="rgb(49.465942%, 65.176392%, 95.541382%)" offset="0.015625"/><stop stop-opacity="1" stop-color="rgb(49.427795%, 64.897156%, 95.491028%)" offset="0.0195312"/><stop stop-opacity="1" stop-color="rgb(49.391174%, 64.619446%, 95.4422%)" offset="0.0234375"/><stop stop-opacity="1" stop-color="rgb(49.353027%, 64.34021%, 95.391846%)" offset="0.0273437"/><stop stop-opacity="1" stop-color="rgb(49.31488%, 64.0625%, 95.343018%)" offset="0.03125"/><stop stop-opacity="1" stop-color="rgb(49.276733%, 63.783264%, 95.294189%)" offset="0.0351562"/><stop stop-opacity="1" stop-color="rgb(49.240112%, 63.505554%, 95.245361%)" offset="0.0390625"/><stop stop-opacity="1" stop-color="rgb(49.201965%, 63.226318%, 95.195007%)" offset="0.0429687"/><stop stop-opacity="1" stop-color="rgb(49.165344%, 62.947083%, 95.146179%)" offset="0.046875"/><stop stop-opacity="1" stop-color="rgb(49.127197%, 62.667847%, 95.097351%)" offset="0.0507812"/><stop stop-opacity="1" stop-color="rgb(49.08905%, 62.390137%, 95.048523%)" offset="0.0546875"/><stop stop-opacity="1" stop-color="rgb(49.050903%, 62.110901%, 94.998169%)" offset="0.0585938"/><stop stop-opacity="1" stop-color="rgb(49.014282%, 61.833191%, 94.949341%)" offset="0.0625"/><stop stop-opacity="1" stop-color="rgb(48.976135%, 61.553955%, 94.900513%)" offset="0.0664062"/><stop stop-opacity="1" stop-color="rgb(48.939514%, 61.274719%, 94.851685%)" offset="0.0703125"/><stop stop-opacity="1" stop-color="rgb(48.901367%, 60.995483%, 94.801331%)" offset="0.0742187"/><stop stop-opacity="1" stop-color="rgb(48.86322%, 60.717773%, 94.752502%)" offset="0.078125"/><stop stop-opacity="1" stop-color="rgb(48.825073%, 60.438538%, 94.702148%)" offset="0.0820312"/><stop stop-opacity="1" stop-color="rgb(48.788452%, 60.160828%, 94.65332%)" offset="0.0859375"/><stop stop-opacity="1" stop-color="rgb(48.750305%, 59.881592%, 94.604492%)" offset="0.0898437"/><stop stop-opacity="1" stop-color="rgb(48.712158%, 59.603882%, 94.555664%)" offset="0.09375"/><stop stop-opacity="1" stop-color="rgb(48.674011%, 59.324646%, 94.50531%)" offset="0.0976562"/><stop stop-opacity="1" stop-color="rgb(48.63739%, 59.04541%, 94.456482%)" offset="0.101562"/><stop stop-opacity="1" stop-color="rgb(48.599243%, 58.766174%, 94.407654%)" offset="0.105469"/><stop stop-opacity="1" stop-color="rgb(48.562622%, 58.488464%, 94.358826%)" offset="0.109375"/><stop stop-opacity="1" stop-color="rgb(48.524475%, 58.209229%, 94.308472%)" offset="0.113281"/><stop stop-opacity="1" stop-color="rgb(48.486328%, 57.931519%, 94.259644%)" offset="0.117187"/><stop stop-opacity="1" stop-color="rgb(48.448181%, 57.652283%, 94.210815%)" offset="0.121094"/><stop stop-opacity="1" stop-color="rgb(48.41156%, 57.374573%, 94.161987%)" offset="0.125"/><stop stop-opacity="1" stop-color="rgb(48.373413%, 57.095337%, 94.111633%)" offset="0.128906"/><stop stop-opacity="1" stop-color="rgb(48.336792%, 56.816101%, 94.062805%)" offset="0.132813"/><stop stop-opacity="1" stop-color="rgb(48.298645%, 56.536865%, 94.012451%)" offset="0.136719"/><stop stop-opacity="1" stop-color="rgb(48.260498%, 56.259155%, 93.963623%)" offset="0.140625"/><stop stop-opacity="1" stop-color="rgb(48.222351%, 55.979919%, 93.914795%)" offset="0.144531"/><stop stop-opacity="1" stop-color="rgb(48.18573%, 55.702209%, 93.865967%)" offset="0.148438"/><stop stop-opacity="1" stop-color="rgb(48.147583%, 55.422974%, 93.815613%)" offset="0.152344"/><stop stop-opacity="1" stop-color="rgb(48.109436%, 55.145264%, 93.766785%)" offset="0.15625"/><stop stop-opacity="1" stop-color="rgb(48.071289%, 54.866028%, 93.717957%)" offset="0.160156"/><stop stop-opacity="1" stop-color="rgb(48.034668%, 54.586792%, 93.669128%)" offset="0.164062"/><stop stop-opacity="1" stop-color="rgb(47.996521%, 54.307556%, 93.618774%)" offset="0.167969"/><stop stop-opacity="1" stop-color="rgb(47.9599%, 54.029846%, 93.569946%)" offset="0.171875"/><stop stop-opacity="1" stop-color="rgb(47.921753%, 53.75061%, 93.521118%)" offset="0.175781"/><stop stop-opacity="1" stop-color="rgb(47.883606%, 53.4729%, 93.47229%)" offset="0.179688"/><stop stop-opacity="1" stop-color="rgb(47.845459%, 53.193665%, 93.421936%)" offset="0.183594"/><stop stop-opacity="1" stop-color="rgb(47.808838%, 52.915955%, 93.373108%)" offset="0.1875"/><stop stop-opacity="1" stop-color="rgb(47.770691%, 52.636719%, 93.322754%)" offset="0.191406"/><stop stop-opacity="1" stop-color="rgb(47.73407%, 52.357483%, 93.273926%)" offset="0.195313"/><stop stop-opacity="1" stop-color="rgb(47.695923%, 52.078247%, 93.225098%)" offset="0.199219"/><stop stop-opacity="1" stop-color="rgb(47.657776%, 51.800537%, 93.17627%)" offset="0.203125"/><stop stop-opacity="1" stop-color="rgb(47.619629%, 51.521301%, 93.125916%)" offset="0.207031"/><stop stop-opacity="1" stop-color="rgb(47.583008%, 51.243591%, 93.077087%)" offset="0.210937"/><stop stop-opacity="1" stop-color="rgb(47.544861%, 50.964355%, 93.028259%)" offset="0.214844"/><stop stop-opacity="1" stop-color="rgb(47.506714%, 50.686646%, 92.979431%)" offset="0.21875"/><stop stop-opacity="1" stop-color="rgb(47.468567%, 50.40741%, 92.929077%)" offset="0.222656"/><stop stop-opacity="1" stop-color="rgb(47.431946%, 50.128174%, 92.880249%)" offset="0.226562"/><stop stop-opacity="1" stop-color="rgb(47.393799%, 49.848938%, 92.831421%)" offset="0.230469"/><stop stop-opacity="1" stop-color="rgb(47.357178%, 49.571228%, 92.782593%)" offset="0.234375"/><stop stop-opacity="1" stop-color="rgb(47.319031%, 49.291992%, 92.732239%)" offset="0.238281"/><stop stop-opacity="1" stop-color="rgb(47.280884%, 49.014282%, 92.683411%)" offset="0.242188"/><stop stop-opacity="1" stop-color="rgb(47.242737%, 48.735046%, 92.633057%)" offset="0.246094"/><stop stop-opacity="1" stop-color="rgb(47.206116%, 48.457336%, 92.584229%)" offset="0.25"/><stop stop-opacity="1" stop-color="rgb(47.167969%, 48.178101%, 92.5354%)" offset="0.253906"/><stop stop-opacity="1" stop-color="rgb(47.131348%, 47.898865%, 92.486572%)" offset="0.257812"/><stop stop-opacity="1" stop-color="rgb(47.093201%, 47.619629%, 92.436218%)" offset="0.261719"/><stop stop-opacity="1" stop-color="rgb(47.055054%, 47.341919%, 92.38739%)" offset="0.265625"/><stop stop-opacity="1" stop-color="rgb(47.016907%, 47.062683%, 92.338562%)" offset="0.269531"/><stop stop-opacity="1" stop-color="rgb(46.980286%, 46.784973%, 92.289734%)" offset="0.273438"/><stop stop-opacity="1" stop-color="rgb(46.942139%, 46.505737%, 92.23938%)" offset="0.277344"/><stop stop-opacity="1" stop-color="rgb(46.903992%, 46.226501%, 92.190552%)" offset="0.28125"/><stop stop-opacity="1" stop-color="rgb(46.865845%, 45.947266%, 92.141724%)" offset="0.285156"/><stop stop-opacity="1" stop-color="rgb(46.829224%, 45.669556%, 92.092896%)" offset="0.289062"/><stop stop-opacity="1" stop-color="rgb(46.791077%, 45.39032%, 92.042542%)" offset="0.292969"/><stop stop-opacity="1" stop-color="rgb(46.754456%, 45.11261%, 91.993713%)" offset="0.296875"/><stop stop-opacity="1" stop-color="rgb(46.716309%, 44.833374%, 91.943359%)" offset="0.300781"/><stop stop-opacity="1" stop-color="rgb(46.678162%, 44.555664%, 91.894531%)" offset="0.304687"/><stop stop-opacity="1" stop-color="rgb(46.640015%, 44.276428%, 91.845703%)" offset="0.308594"/><stop stop-opacity="1" stop-color="rgb(46.603394%, 43.997192%, 91.796875%)" offset="0.3125"/><stop stop-opacity="1" stop-color="rgb(46.565247%, 43.717957%, 91.746521%)" offset="0.316406"/><stop stop-opacity="1" stop-color="rgb(46.528625%, 43.440247%, 91.697693%)" offset="0.320312"/><stop stop-opacity="1" stop-color="rgb(46.490479%, 43.161011%, 91.648865%)" offset="0.324219"/><stop stop-opacity="1" stop-color="rgb(46.452332%, 42.883301%, 91.600037%)" offset="0.328125"/><stop stop-opacity="1" stop-color="rgb(46.414185%, 42.604065%, 91.549683%)" offset="0.332031"/><stop stop-opacity="1" stop-color="rgb(46.377563%, 42.326355%, 91.500854%)" offset="0.335938"/><stop stop-opacity="1" stop-color="rgb(46.339417%, 42.047119%, 91.452026%)" offset="0.339844"/><stop stop-opacity="1" stop-color="rgb(46.30127%, 41.767883%, 91.403198%)" offset="0.34375"/><stop stop-opacity="1" stop-color="rgb(46.263123%, 41.488647%, 91.352844%)" offset="0.347656"/><stop stop-opacity="1" stop-color="rgb(46.226501%, 41.210938%, 91.304016%)" offset="0.351562"/><stop stop-opacity="1" stop-color="rgb(46.188354%, 40.931702%, 91.255188%)" offset="0.355469"/><stop stop-opacity="1" stop-color="rgb(46.151733%, 40.653992%, 91.20636%)" offset="0.359375"/><stop stop-opacity="1" stop-color="rgb(46.113586%, 40.374756%, 91.156006%)" offset="0.363281"/><stop stop-opacity="1" stop-color="rgb(46.075439%, 40.097046%, 91.107178%)" offset="0.367188"/><stop stop-opacity="1" stop-color="rgb(46.037292%, 39.81781%, 91.056824%)" offset="0.371094"/><stop stop-opacity="1" stop-color="rgb(46.000671%, 39.538574%, 91.007996%)" offset="0.375"/><stop stop-opacity="1" stop-color="rgb(45.962524%, 39.259338%, 90.959167%)" offset="0.378906"/><stop stop-opacity="1" stop-color="rgb(45.924377%, 38.981628%, 90.910339%)" offset="0.382812"/><stop stop-opacity="1" stop-color="rgb(45.88623%, 38.702393%, 90.859985%)" offset="0.386719"/><stop stop-opacity="1" stop-color="rgb(45.849609%, 38.424683%, 90.811157%)" offset="0.390625"/><stop stop-opacity="1" stop-color="rgb(45.811462%, 38.145447%, 90.762329%)" offset="0.394531"/><stop stop-opacity="1" stop-color="rgb(45.774841%, 37.867737%, 90.713501%)" offset="0.398437"/><stop stop-opacity="1" stop-color="rgb(45.736694%, 37.588501%, 90.663147%)" offset="0.402344"/><stop stop-opacity="1" stop-color="rgb(45.698547%, 37.309265%, 90.614319%)" offset="0.40625"/><stop stop-opacity="1" stop-color="rgb(45.6604%, 37.030029%, 90.565491%)" offset="0.410156"/><stop stop-opacity="1" stop-color="rgb(45.623779%, 36.752319%, 90.516663%)" offset="0.414062"/><stop stop-opacity="1" stop-color="rgb(45.585632%, 36.473083%, 90.466309%)" offset="0.417969"/><stop stop-opacity="1" stop-color="rgb(45.549011%, 36.195374%, 90.41748%)" offset="0.421875"/><stop stop-opacity="1" stop-color="rgb(45.510864%, 35.916138%, 90.367126%)" offset="0.425781"/><stop stop-opacity="1" stop-color="rgb(45.472717%, 35.638428%, 90.318298%)" offset="0.429687"/><stop stop-opacity="1" stop-color="rgb(45.43457%, 35.359192%, 90.26947%)" offset="0.433594"/><stop stop-opacity="1" stop-color="rgb(45.397949%, 35.079956%, 90.220642%)" offset="0.4375"/><stop stop-opacity="1" stop-color="rgb(45.359802%, 34.80072%, 90.170288%)" offset="0.441406"/><stop stop-opacity="1" stop-color="rgb(45.321655%, 34.52301%, 90.12146%)" offset="0.445312"/><stop stop-opacity="1" stop-color="rgb(45.283508%, 34.243774%, 90.072632%)" offset="0.449219"/><stop stop-opacity="1" stop-color="rgb(45.246887%, 33.966064%, 90.023804%)" offset="0.453125"/><stop stop-opacity="1" stop-color="rgb(45.20874%, 33.686829%, 89.97345%)" offset="0.457031"/><stop stop-opacity="1" stop-color="rgb(45.172119%, 33.409119%, 89.924622%)" offset="0.460937"/><stop stop-opacity="1" stop-color="rgb(45.133972%, 33.129883%, 89.875793%)" offset="0.464844"/><stop stop-opacity="1" stop-color="rgb(45.095825%, 32.850647%, 89.826965%)" offset="0.46875"/><stop stop-opacity="1" stop-color="rgb(45.057678%, 32.571411%, 89.776611%)" offset="0.472656"/><stop stop-opacity="1" stop-color="rgb(45.021057%, 32.293701%, 89.727783%)" offset="0.476562"/><stop stop-opacity="1" stop-color="rgb(44.98291%, 32.014465%, 89.677429%)" offset="0.480469"/><stop stop-opacity="1" stop-color="rgb(44.946289%, 31.736755%, 89.628601%)" offset="0.484375"/><stop stop-opacity="1" stop-color="rgb(44.908142%, 31.45752%, 89.579773%)" offset="0.488281"/><stop stop-opacity="1" stop-color="rgb(44.869995%, 31.178284%, 89.530945%)" offset="0.492187"/><stop stop-opacity="1" stop-color="rgb(44.831848%, 30.899048%, 89.480591%)" offset="0.496094"/><stop stop-opacity="1" stop-color="rgb(44.795227%, 30.621338%, 89.431763%)" offset="0.5"/><stop stop-opacity="1" stop-color="rgb(44.75708%, 30.342102%, 89.382935%)" offset="0.503906"/><stop stop-opacity="1" stop-color="rgb(44.718933%, 30.064392%, 89.334106%)" offset="0.507812"/><stop stop-opacity="1" stop-color="rgb(44.680786%, 29.785156%, 89.283752%)" offset="0.511719"/><stop stop-opacity="1" stop-color="rgb(44.644165%, 29.507446%, 89.234924%)" offset="0.515625"/><stop stop-opacity="1" stop-color="rgb(44.606018%, 29.22821%, 89.186096%)" offset="0.519531"/><stop stop-opacity="1" stop-color="rgb(44.569397%, 28.948975%, 89.137268%)" offset="0.523438"/><stop stop-opacity="1" stop-color="rgb(44.53125%, 28.669739%, 89.086914%)" offset="0.527344"/><stop stop-opacity="1" stop-color="rgb(44.493103%, 28.392029%, 89.038086%)" offset="0.53125"/><stop stop-opacity="1" stop-color="rgb(44.454956%, 28.112793%, 88.987732%)" offset="0.535156"/><stop stop-opacity="1" stop-color="rgb(44.418335%, 27.835083%, 88.938904%)" offset="0.539062"/><stop stop-opacity="1" stop-color="rgb(44.380188%, 27.555847%, 88.890076%)" offset="0.542969"/><stop stop-opacity="1" stop-color="rgb(44.343567%, 27.278137%, 88.841248%)" offset="0.546875"/><stop stop-opacity="1" stop-color="rgb(44.30542%, 26.998901%, 88.790894%)" offset="0.550781"/><stop stop-opacity="1" stop-color="rgb(44.267273%, 26.719666%, 88.742065%)" offset="0.554687"/><stop stop-opacity="1" stop-color="rgb(44.229126%, 26.44043%, 88.693237%)" offset="0.558594"/><stop stop-opacity="1" stop-color="rgb(44.192505%, 26.16272%, 88.644409%)" offset="0.5625"/><stop stop-opacity="1" stop-color="rgb(44.154358%, 25.883484%, 88.594055%)" offset="0.566406"/><stop stop-opacity="1" stop-color="rgb(44.116211%, 25.605774%, 88.545227%)" offset="0.570312"/><stop stop-opacity="1" stop-color="rgb(44.078064%, 25.326538%, 88.496399%)" offset="0.574219"/><stop stop-opacity="1" stop-color="rgb(44.041443%, 25.048828%, 88.447571%)" offset="0.578125"/><stop stop-opacity="1" stop-color="rgb(44.003296%, 24.769592%, 88.397217%)" offset="0.582031"/><stop stop-opacity="1" stop-color="rgb(43.966675%, 24.490356%, 88.348389%)" offset="0.585937"/><stop stop-opacity="1" stop-color="rgb(43.928528%, 24.211121%, 88.298035%)" offset="0.589844"/><stop stop-opacity="1" stop-color="rgb(43.890381%, 23.933411%, 88.249207%)" offset="0.59375"/><stop stop-opacity="1" stop-color="rgb(43.852234%, 23.654175%, 88.200378%)" offset="0.597656"/><stop stop-opacity="1" stop-color="rgb(43.815613%, 23.376465%, 88.15155%)" offset="0.601562"/><stop stop-opacity="1" stop-color="rgb(43.777466%, 23.097229%, 88.101196%)" offset="0.605469"/><stop stop-opacity="1" stop-color="rgb(43.740845%, 22.819519%, 88.052368%)" offset="0.609375"/><stop stop-opacity="1" stop-color="rgb(43.702698%, 22.540283%, 88.00354%)" offset="0.613281"/><stop stop-opacity="1" stop-color="rgb(43.664551%, 22.261047%, 87.954712%)" offset="0.617187"/><stop stop-opacity="1" stop-color="rgb(43.626404%, 21.981812%, 87.904358%)" offset="0.621094"/><stop stop-opacity="1" stop-color="rgb(43.589783%, 21.704102%, 87.85553%)" offset="0.625"/><stop stop-opacity="1" stop-color="rgb(43.551636%, 21.424866%, 87.806702%)" offset="0.628906"/><stop stop-opacity="1" stop-color="rgb(43.513489%, 21.147156%, 87.757874%)" offset="0.632812"/><stop stop-opacity="1" stop-color="rgb(43.475342%, 20.86792%, 87.70752%)" offset="0.636719"/><stop stop-opacity="1" stop-color="rgb(43.438721%, 20.59021%, 87.658691%)" offset="0.640625"/><stop stop-opacity="1" stop-color="rgb(43.400574%, 20.310974%, 87.608337%)" offset="0.644531"/><stop stop-opacity="1" stop-color="rgb(43.363953%, 20.031738%, 87.559509%)" offset="0.648438"/><stop stop-opacity="1" stop-color="rgb(43.325806%, 19.752502%, 87.510681%)" offset="0.652344"/><stop stop-opacity="1" stop-color="rgb(43.287659%, 19.474792%, 87.461853%)" offset="0.65625"/><stop stop-opacity="1" stop-color="rgb(43.249512%, 19.195557%, 87.411499%)" offset="0.660156"/><stop stop-opacity="1" stop-color="rgb(43.212891%, 18.917847%, 87.362671%)" offset="0.664062"/><stop stop-opacity="1" stop-color="rgb(43.174744%, 18.638611%, 87.313843%)" offset="0.667969"/><stop stop-opacity="1" stop-color="rgb(43.138123%, 18.360901%, 87.265015%)" offset="0.671875"/><stop stop-opacity="1" stop-color="rgb(43.099976%, 18.081665%, 87.214661%)" offset="0.675781"/><stop stop-opacity="1" stop-color="rgb(43.061829%, 17.802429%, 87.165833%)" offset="0.679688"/><stop stop-opacity="1" stop-color="rgb(43.023682%, 17.523193%, 87.117004%)" offset="0.683594"/><stop stop-opacity="1" stop-color="rgb(42.987061%, 17.245483%, 87.068176%)" offset="0.6875"/><stop stop-opacity="1" stop-color="rgb(42.948914%, 16.966248%, 87.017822%)" offset="0.691406"/><stop stop-opacity="1" stop-color="rgb(42.910767%, 16.688538%, 86.968994%)" offset="0.695312"/><stop stop-opacity="1" stop-color="rgb(42.87262%, 16.409302%, 86.91864%)" offset="0.699219"/><stop stop-opacity="1" stop-color="rgb(42.835999%, 16.131592%, 86.869812%)" offset="0.703125"/><stop stop-opacity="1" stop-color="rgb(42.797852%, 15.852356%, 86.820984%)" offset="0.707031"/><stop stop-opacity="1" stop-color="rgb(42.76123%, 15.57312%, 86.772156%)" offset="0.710937"/><stop stop-opacity="1" stop-color="rgb(42.723083%, 15.293884%, 86.721802%)" offset="0.714844"/><stop stop-opacity="1" stop-color="rgb(42.684937%, 15.016174%, 86.672974%)" offset="0.71875"/><stop stop-opacity="1" stop-color="rgb(42.64679%, 14.736938%, 86.624146%)" offset="0.722656"/><stop stop-opacity="1" stop-color="rgb(42.610168%, 14.459229%, 86.575317%)" offset="0.726562"/><stop stop-opacity="1" stop-color="rgb(42.572021%, 14.179993%, 86.524963%)" offset="0.730469"/><stop stop-opacity="1" stop-color="rgb(42.5354%, 13.900757%, 86.476135%)" offset="0.734375"/><stop stop-opacity="1" stop-color="rgb(42.497253%, 13.621521%, 86.427307%)" offset="0.738281"/><stop stop-opacity="1" stop-color="rgb(42.459106%, 13.343811%, 86.378479%)" offset="0.742188"/><stop stop-opacity="1" stop-color="rgb(42.428589%, 13.121033%, 86.338806%)" offset="0.746094"/><stop stop-opacity="1" stop-color="rgb(42.399597%, 12.89978%, 86.299133%)" offset="0.75"/><stop stop-opacity="1" stop-color="rgb(42.399597%, 12.89978%, 86.299133%)" offset="1"/></linearGradient><clipPath id="d3182fcf4f"><path d="M 65 76.269531 L 127 76.269531 L 127 299.488281 L 65 299.488281 Z M 65 76.269531 " clip-rule="nonzero"/></clipPath><clipPath id="0c298dc5de"><path d="M 126 76.269531 L 188 76.269531 L 188 299.488281 L 126 299.488281 Z M 126 76.269531 " clip-rule="nonzero"/></clipPath><clipPath id="6b444424bd"><path d="M 187 76.269531 L 249 76.269531 L 249 299.488281 L 187 299.488281 Z M 187 76.269531 " clip-rule="nonzero"/></clipPath><clipPath id="7d29a17878"><path d="M 248 76.269531 L 309.796875 76.269531 L 309.796875 299.488281 L 248 299.488281 Z M 248 76.269531 " clip-rule="nonzero"/></clipPath></defs><g clip-path="url(#8bec578235)"><g clip-path="url(#1b9ffa8de5)"><path fill="#6c21dc" d="M 131.25 131.25 L 243.75 131.25 L 243.75 243.75 L 131.25 243.75 Z M 131.25 131.25 " fill-opacity="1" fill-rule="nonzero"/></g></g><g clip-path="url(#4218dbf40d)"><g clip-path="url(#3abf083b6d)"><path fill="url(#90c37c4f6c)" d="M 0 374.429688 L 374.429688 374.429688 L 374.429688 0 L 0 0 Z M 0 374.429688 " fill-rule="nonzero"/></g></g><g clip-path="url(#d3182fcf4f)"><path fill="#ffffff" d="M 65.425781 299.488281 L 126.339844 225.011719 L 126.339844 76.269531 L 65.152344 151.089844 Z M 65.425781 299.488281 " fill-opacity="1" fill-rule="nonzero"/></g><g clip-path="url(#0c298dc5de)"><path fill="#c0bff2" d="M 126.339844 76.269531 L 187.375 150.742188 L 187.375 299.488281 L 126.339844 224.664062 Z M 126.339844 76.269531 " fill-opacity="1" fill-rule="nonzero"/></g><g clip-path="url(#6b444424bd)"><path fill="#dbd5f4" d="M 187.652344 299.488281 L 248.566406 225.011719 L 248.566406 76.269531 L 187.375 151.089844 Z M 187.652344 299.488281 " fill-opacity="1" fill-rule="nonzero"/></g><g clip-path="url(#7d29a17878)"><path fill="#a287ec" d="M 248.566406 76.269531 L 309.621094 150.742188 L 309.621094 299.488281 L 248.566406 224.664062 Z M 248.566406 76.269531 " fill-opacity="1" fill-rule="nonzero"/></g></svg>